<svg aria-hidden="true" style="position: absolute; width: 0; height: 0; overflow: hidden;" version="1.1" xmlns="http://www.w3.org/2000/svg" xmlns:xlink="http://www.w3.org/1999/xlink">
<defs>

<symbol id="icon-arrow-left" viewBox="0 0 32 32">
<path d="M0.166 15.909c-0.050 0.050-0.050 0.131 0 0.181l0.815 0.815c0.050 0.050 0.131 0.050 0.181 0s0.050-0.131 0-0.181l-0.724-0.724 0.724-0.724c0.050-0.050 0.050-0.131 0-0.181s-0.131-0.050-0.181 0l-0.815 0.815zM32 15.872h-31.744v0.256h31.744v-0.256z"></path>
</symbol>

<symbol id="icon-arrow-right" viewBox="0 0 32 32">
<path d="M31.835 15.909c0.050 0.050 0.050 0.131 0 0.181l-0.815 0.815c-0.050 0.050-0.131 0.050-0.181 0s-0.050-0.131 0-0.181l0.724-0.724-0.724-0.724c-0.050-0.050-0.050-0.131 0-0.181s0.131-0.050 0.181 0l0.815 0.815zM0 15.872h31.744v0.256h-31.744v-0.256z"></path>
</symbol>

<symbol id="icon-calendar" viewBox="0 0 32 32">
<path fill="none" stroke-linejoin="round" stroke-linecap="round" stroke-miterlimit="4" stroke-width="1.8824" d="M24.784 5.961h-17.569c-1.386 0-2.51 1.124-2.51 2.51v17.569c0 1.386 1.124 2.51 2.51 2.51h17.569c1.386 0 2.51-1.124 2.51-2.51v-17.569c0-1.386-1.124-2.51-2.51-2.51z"></path>
<path fill="none" stroke-linejoin="round" stroke-linecap="round" stroke-miterlimit="4" stroke-width="1.8824" d="M21.020 3.451v5.020"></path>
<path fill="none" stroke-linejoin="round" stroke-linecap="round" stroke-miterlimit="4" stroke-width="1.8824" d="M10.98 3.451v5.020"></path>
<path fill="none" stroke-linejoin="round" stroke-linecap="round" stroke-miterlimit="4" stroke-width="1.8824" d="M4.706 13.49h22.588"></path>
</symbol>

<symbol id="icon-chevron-down" viewBox="0 0 32 32">
<path fill="none" stroke-linejoin="round" stroke-linecap="round" stroke-miterlimit="4"  d="M8.471 12.235l7.529 7.529 7.529-7.529"></path>
</symbol>

<symbol id="icon-chevron-left" viewBox="0 0 32 32">
<path fill="none" stroke="#fff" style="stroke: var(--color2, #fff)" stroke-linejoin="round" stroke-linecap="round" stroke-miterlimit="4" stroke-width="2.6667" d="M20 24l-8-8 8-8"></path>
</symbol>

<symbol id="icon-chevron-right" viewBox="0 0 32 32">
<path fill="none" stroke="#fff" style="stroke: var(--color2, #fff)" stroke-linejoin="round" stroke-linecap="round" stroke-miterlimit="4" stroke-width="2.6667" d="M12 24l8-8-8-8"></path>
</symbol>

<symbol id="icon-close" viewBox="0 0 32 32">
<path stroke-linejoin="round" stroke-linecap="round" stroke-miterlimit="4" stroke-width="2" d="M24 8l-16 16"></path>
<path stroke-linejoin="round" stroke-linecap="round" stroke-miterlimit="4" stroke-width="2" d="M8 8l16 16"></path>
</symbol>

<symbol id="close" viewBox="0 0 20 20">
<path d="M10 8.586l-7.071-7.071-1.414 1.414 7.071 7.071-7.071 7.071 1.414 1.414 7.071-7.071 7.071 7.071 1.414-1.414-7.071-7.071 7.071-7.071-1.414-1.414-7.071 7.071z"></path>
</symbol>

<symbol id="icon-dollar-sign" viewBox="0 0 32 32">
<path stroke-linejoin="round" stroke-linecap="round" stroke-miterlimit="4" stroke-width="2" d="M16 1.333v29.333"></path>
<path stroke-linejoin="round" stroke-linecap="round" stroke-miterlimit="4" stroke-width="2" d="M22.667 6.667h-10c-1.238 0-2.425 0.492-3.3 1.367s-1.367 2.062-1.367 3.3c0 1.238 0.492 2.425 1.367 3.3s2.062 1.367 3.3 1.367h6.667c1.238 0 2.425 0.492 3.3 1.367s1.367 2.062 1.367 3.3c0 1.238-0.492 2.425-1.367 3.3s-2.062 1.367-3.3 1.367h-11.333"></path>
</symbol>

<symbol id="icon-download" viewBox="0 0 32 32">
<path stroke-linejoin="round" stroke-linecap="round" stroke-miterlimit="4" stroke-width="2.6667" d="M28 20v5.333c0 0.707-0.281 1.385-0.781 1.886s-1.178 0.781-1.886 0.781h-18.667c-0.707 0-1.386-0.281-1.886-0.781s-0.781-1.178-0.781-1.886v-5.333"></path>
<path stroke-linejoin="round" stroke-linecap="round" stroke-miterlimit="4" stroke-width="2.6667" d="M9.333 13.333l6.667 6.667 6.667-6.667"></path>
<path stroke-linejoin="round" stroke-linecap="round" stroke-miterlimit="4" stroke-width="2.6667" d="M16 20v-16"></path>
</symbol>

<symbol id="icon-hash" viewBox="0 0 32 32">
<path fill="none" stroke="#6D6D6D" style="stroke: var(--color1, #6D6D6D)" stroke-linejoin="round" stroke-linecap="round" stroke-miterlimit="4" stroke-width="1.8824" d="M5.961 12.235h20.078"></path>
<path fill="none" stroke="#6D6D6D" style="stroke: var(--color1, #6D6D6D)" stroke-linejoin="round" stroke-linecap="round" stroke-miterlimit="4" stroke-width="1.8824" d="M5.961 19.765h20.078"></path>
<path fill="none" stroke="#6D6D6D" style="stroke: var(--color1, #6D6D6D)" stroke-linejoin="round" stroke-linecap="round" stroke-miterlimit="4" stroke-width="1.8824" d="M13.49 4.706l-2.51 22.588"></path>
<path fill="none" stroke="#6D6D6D" style="stroke: var(--color1, #6D6D6D)" stroke-linejoin="round" stroke-linecap="round" stroke-miterlimit="4" stroke-width="1.8824" d="M21.020 4.706l-2.51 22.588"></path>
</symbol>

<symbol id="icon-map-pin" viewBox="0 0 32 32">
<path  stroke-linejoin="round" stroke-linecap="round" stroke-miterlimit="4" stroke-width="2.6667" d="M28 13.333c0 9.333-12 17.333-12 17.333s-12-8-12-17.333c0-3.183 1.264-6.235 3.515-8.485s5.303-3.515 8.485-3.515c3.183 0 6.235 1.264 8.485 3.515s3.515 5.303 3.515 8.485z"></path>
<path  stroke-linejoin="round" stroke-linecap="round" stroke-miterlimit="4" stroke-width="2.6667" d="M16 17.333c2.209 0 4-1.791 4-4s-1.791-4-4-4c-2.209 0-4 1.791-4 4s1.791 4 4 4z"></path>
</symbol>

<symbol id="icon-phone" viewBox="0 0 32 32">
<path fill="none" stroke-linejoin="round" stroke-linecap="round" stroke-miterlimit="4" stroke-width="1.8824" d="M28.549 22.174v3.765c0.001 0.35-0.070 0.696-0.21 1.016s-0.345 0.608-0.603 0.844c-0.258 0.236-0.561 0.416-0.893 0.528s-0.682 0.154-1.030 0.122c-3.861-0.42-7.571-1.739-10.83-3.852-3.032-1.927-5.603-4.497-7.529-7.529-2.121-3.274-3.441-7.001-3.853-10.88-0.031-0.347 0.010-0.697 0.121-1.027s0.29-0.634 0.525-0.891c0.235-0.257 0.521-0.463 0.84-0.604s0.663-0.214 1.012-0.214h3.765c0.609-0.006 1.199 0.21 1.661 0.607s0.763 0.949 0.849 1.552c0.159 1.205 0.454 2.388 0.878 3.526 0.169 0.449 0.205 0.937 0.105 1.407s-0.333 0.9-0.67 1.241l-1.594 1.594c1.786 3.142 4.388 5.743 7.529 7.529l1.594-1.594c0.341-0.337 0.772-0.57 1.241-0.67s0.958-0.064 1.407 0.105c1.138 0.425 2.322 0.72 3.526 0.878 0.61 0.086 1.166 0.393 1.564 0.863s0.61 1.069 0.594 1.685z"></path>
</symbol>

<symbol id="icon-sliders" viewBox="0 0 32 32">
<path stroke-linejoin="round" stroke-linecap="round" stroke-miterlimit="4" stroke-width="2.6667" d="M5.333 28v-9.333"></path>
<path stroke-linejoin="round" stroke-linecap="round" stroke-miterlimit="4" stroke-width="2.6667" d="M5.333 13.333v-9.333"></path>
<path stroke-linejoin="round" stroke-linecap="round" stroke-miterlimit="4" stroke-width="2.6667" d="M16 28v-12"></path>
<path stroke-linejoin="round" stroke-linecap="round" stroke-miterlimit="4" stroke-width="2.6667" d="M16 10.667v-6.667"></path>
<path stroke-linejoin="round" stroke-linecap="round" stroke-miterlimit="4" stroke-width="2.6667" d="M26.667 28v-6.667"></path>
<path stroke-linejoin="round" stroke-linecap="round" stroke-miterlimit="4" stroke-width="2.6667" d="M26.667 16v-12"></path>
<path stroke-linejoin="round" stroke-linecap="round" stroke-miterlimit="4" stroke-width="2.6667" d="M1.333 18.667h8"></path>
<path stroke-linejoin="round" stroke-linecap="round" stroke-miterlimit="4" stroke-width="2.6667" d="M12 10.667h8"></path>
<path stroke-linejoin="round" stroke-linecap="round" stroke-miterlimit="4" stroke-width="2.6667" d="M22.667 21.333h8"></path>
</symbol>

<symbol id="icon-star" viewBox="0 0 32 32">
<path fill="#6d6d6d" style="fill: var(--color3, #6d6d6d); stroke: var(--color3, #6d6d6d)" stroke="#6d6d6d" stroke-linejoin="round" stroke-linecap="round" stroke-miterlimit="4" stroke-width="1.4545" d="M16 2.167l4.495 9.105 10.051 1.469-7.273 7.084 1.716 10.007-8.989-4.727-8.989 4.727 1.716-10.007-7.273-7.084 10.051-1.469 4.495-9.105z"></path>
</symbol>

<symbol id="icon-user" viewBox="0 0 32 32">
<path fill="none" stroke-linejoin="round" stroke-linecap="round" stroke-miterlimit="4" stroke-width="1.8824" d="M26.039 27.294v-2.51c0-1.331-0.529-2.608-1.47-3.55s-2.218-1.47-3.549-1.47h-10.039c-1.331 0-2.608 0.529-3.549 1.47s-1.47 2.218-1.47 3.55v2.51"></path>
<path fill="none" stroke-linejoin="round" stroke-linecap="round" stroke-miterlimit="4" stroke-width="1.8824" d="M16 14.745c2.772 0 5.020-2.247 5.020-5.020s-2.247-5.020-5.020-5.020c-2.772 0-5.020 2.247-5.020 5.020s2.247 5.020 5.020 5.020z"></path>
</symbol>

<symbol id="icon-burger-mobile" viewBox="0 0 54 32">
<path  d="M3.341 0h47.473c1.457 0 2.637 1.181 2.637 2.637s-1.181 2.637-2.637 2.637h-47.473c-1.457 0-2.637-1.181-2.637-2.637s1.181-2.637 2.637-2.637z"></path>
<path  d="M3.341 13.187h47.473c1.457 0 2.637 1.181 2.637 2.637s-1.181 2.637-2.637 2.637h-47.473c-1.457 0-2.637-1.181-2.637-2.637s1.181-2.637 2.637-2.637z"></path>
<path  d="M3.341 26.373h47.473c1.457 0 2.637 1.181 2.637 2.637s-1.181 2.637-2.637 2.637h-47.473c-1.457 0-2.637-1.181-2.637-2.637s1.181-2.637 2.637-2.637z"></path>
</symbol>

<symbol id="icon-map-pin-footer" viewBox="0 0 32 32">
<path stroke-linejoin="round" stroke-linecap="round" stroke-miterlimit="1" stroke-width="2" d="M28 13.334c0 9.333-12 17.333-12 17.333s-12-8-12-17.333c0-3.183 1.264-6.235 3.515-8.485s5.303-3.515 8.485-3.515c3.183 0 6.235 1.264 8.485 3.515s3.515 5.303 3.515 8.485z"></path>
<path stroke-linejoin="round" stroke-linecap="round" stroke-miterlimit="4" stroke-width="2" d="M16 17.334c2.209 0 4-1.791 4-4s-1.791-4-4-4c-2.209 0-4 1.791-4 4s1.791 4 4 4z"></path>
</symbol>

<symbol id="icon-Facebook" viewBox="0 0 32 32">
<path d="M0.762 0.762h30.476v30.476h-30.476v-30.476z"></path>
</symbol>

<symbol id="icon-arrow-left-circle" viewBox="0 0 32 32">
<path fill="none"  stroke-linejoin="round" stroke-linecap="round" stroke-miterlimit="4" stroke-width="1.3333" d="M16 29.333c7.364 0 13.333-5.97 13.333-13.333s-5.97-13.333-13.333-13.333c-7.364 0-13.333 5.97-13.333 13.333s5.97 13.333 13.333 13.333z"></path>
<path fill="none"  stroke-linejoin="round" stroke-linecap="round" stroke-miterlimit="4" stroke-width="1.3333" d="M16 10.667l-5.333 5.333 5.333 5.333"></path>
<path fill="none"  stroke-linejoin="round" stroke-linecap="round" stroke-miterlimit="4" stroke-width="1.3333" d="M21.333 16h-10.667"></path>
</symbol>

<symbol id="icon-UAN" viewBox="0 0 25 32">
<path d="M17.555 14.438l-3.854 3.125h11.32v3.438h-14.682c-0.979 0.74-1.563 1.641-1.563 2.789 0 1.969 1.563 3.036 4.352 3.036 2.378 0 4.427-1.146 6.068-3.523l4.503 3.036c-2.456 3.776-6.891 5.661-11.076 5.661-5.497 0-9.594-2.622-9.594-6.971 0.004-1.537 0.561-2.942 1.482-4.030l-0.008 0.009h-4.503v-3.445h7.216l3.94-3.125h-11.156v-3.438h14.602c1.068-0.982 1.563-1.885 1.563-2.953 0-1.719-1.563-2.951-3.94-2.951-2.299 0-4.263 1.302-5.661 3.523l-4.349-2.958c2.38-3.776 6.234-5.661 10.419-5.661 5.659 0 9.349 2.953 9.349 6.971 0 0.008 0 0.019 0 0.029 0 1.501-0.489 2.888-1.315 4.011l0.013-0.019h4.349v3.445z"></path>
</symbol>

<symbol id="icon-flag-ukraine" viewBox="0 0 32 32">
<path fill="#005bbb" style="fill: var(--color1, #005bbb)" d="M28.444 4.444h-24.889c-0.943 0-1.847 0.375-2.514 1.041s-1.041 1.571-1.041 2.514v8h32v-8c0-0.943-0.375-1.847-1.041-2.514s-1.571-1.041-2.514-1.041z"></path>
<path fill="#ffd500" style="fill: var(--color2, #ffd500)" d="M32 24c0 0.943-0.375 1.847-1.041 2.514s-1.571 1.041-2.514 1.041h-24.889c-0.943 0-1.847-0.375-2.514-1.041s-1.041-1.571-1.041-2.514v-8h32v8z"></path>
</symbol>

<symbol id="icon-edit" viewBox="0 0 32 32">
<path d="M27 0c2.761 0 5 2.239 5 5 0 1.126-0.372 2.164-1 3l-2 2-7-7 2-2c0.836-0.628 1.874-1 3-1zM2 23l-2 9 9-2 18.5-18.5-7-7-18.5 18.5zM22.362 11.362l-14 14-1.724-1.724 14-14 1.724 1.724z"></path>
</symbol>

<symbol id="icon-delete" viewBox="0 0 32 32">
<path d="M4 10v20c0 1.1 0.9 2 2 2h18c1.1 0 2-0.9 2-2v-20h-22zM10 28h-2v-14h2v14zM14 28h-2v-14h2v14zM18 28h-2v-14h2v14zM22 28h-2v-14h2v14z"></path>
<path d="M26.5 4h-6.5v-2.5c0-0.825-0.675-1.5-1.5-1.5h-7c-0.825 0-1.5 0.675-1.5 1.5v2.5h-6.5c-0.825 0-1.5 0.675-1.5 1.5v2.5h26v-2.5c0-0.825-0.675-1.5-1.5-1.5zM18 4h-6v-1.975h6v1.975z"></path>
</symbol>

<symbol id="icon-bed" viewBox="0 0 40 32">
<path d="M40 14v18h-4v-6h-32v6h-4v-32h4v20h16v-14h12c2.122 0 4.157 0.843 5.657 2.343s2.343 3.535 2.343 5.657zM12 18c-1.591 0-3.117-0.632-4.243-1.757s-1.757-2.651-1.757-4.243c0-1.591 0.632-3.117 1.757-4.243s2.651-1.757 4.243-1.757c1.591 0 3.117 0.632 4.243 1.757s1.757 2.651 1.757 4.243c0 1.591-0.632 3.117-1.757 4.243s-2.651 1.757-4.243 1.757z"></path>
</symbol>

<symbol id="burger-curved" viewBox="0 0 53 32">
<path fill="#f6f6f4" style="fill: var(--color1, #f6f6f4)" d="M24 28.653c0-1.104 0.896-2 2-2h25.333c1.104 0 2 0.896 2 2s-0.896 2-2 2h-25.333c-1.104 0-2-0.896-2-2zM0 15.32c0-1.104 0.896-2 2-2h49.333c1.104 0 2 0.896 2 2s-0.896 2-2 2h-49.333c-1.104 0-2-0.896-2-2zM10.667 1.987c0-1.104 0.896-2 2-2h38.667c1.104 0 2 0.896 2 2s-0.896 2-2 2h-38.667c-1.104 0-2-0.896-2-2z"></path>
</symbol>

<symbol id="facebook-new" viewBox="0 0 32 32">
<path stroke-linejoin="miter" stroke-linecap="butt" stroke-miterlimit="4" stroke-width="1.6" d="M12 11.467h0.8v-5.313c0-1.887 0.494-3.172 1.403-4.002 0.924-0.843 2.422-1.351 4.72-1.351h4.277v5.067h-3.047c-0.689 0-1.39 0.135-1.84 0.726-0.399 0.522-0.446 1.225-0.446 1.852v3.023h5.259l-0.334 3.733h-4.924v16h-5.067v-16h-4v-3.733h3.2z"></path>
</symbol>

<symbol id="instagram-white" viewBox="0 0 32 32">
<path fill="none" stroke="#f9f6f8" style="stroke: var(--color1, #f9f6f8)" stroke-linejoin="round" stroke-linecap="round" stroke-miterlimit="4" stroke-width="3.5556" d="M24 8v0.018M1.778 8.889c0-1.886 0.749-3.695 2.083-5.028s3.142-2.083 5.028-2.083h14.222c1.886 0 3.695 0.749 5.028 2.083s2.083 3.142 2.083 5.028v14.222c0 1.886-0.749 3.695-2.083 5.028s-3.142 2.083-5.028 2.083h-14.222c-1.886 0-3.695-0.749-5.028-2.083s-2.083-3.142-2.083-5.028v-14.222zM10.667 16c0 1.415 0.562 2.771 1.562 3.771s2.357 1.562 3.771 1.562c1.415 0 2.771-0.562 3.771-1.562s1.562-2.357 1.562-3.771c0-1.415-0.562-2.771-1.562-3.771s-2.357-1.562-3.771-1.562c-1.415 0-2.771 0.562-3.771 1.562s-1.562 2.357-1.562 3.771z"></path>
</symbol>

<symbol id="instagram" viewBox="0 0 31 32">
<path stroke-linejoin="round" stroke-linecap="round" stroke-miterlimit="4" stroke-width="2.56" d="M21.12 10.24v0.013M5.12 10.88c0-1.358 0.539-2.66 1.5-3.62s2.262-1.5 3.62-1.5h10.24c1.358 0 2.66 0.539 3.62 1.5s1.5 2.262 1.5 3.62v10.24c0 1.358-0.539 2.66-1.5 3.62s-2.262 1.5-3.62 1.5h-10.24c-1.358 0-2.66-0.539-3.62-1.5s-1.5-2.262-1.5-3.62v-10.24zM11.52 16c0 1.018 0.405 1.995 1.125 2.715s1.697 1.125 2.715 1.125c1.018 0 1.995-0.405 2.715-1.125s1.125-1.697 1.125-2.715c0-1.018-0.405-1.995-1.125-2.715s-1.697-1.125-2.715-1.125-1.995 0.405-2.715 1.125c-0.72 0.72-1.125 1.697-1.125 2.715z"></path>
</symbol>

<symbol id="facebook-white" viewBox="0 0 16 32">
<path fill="none" stroke="#f9f6f8" style="stroke: var(--color1, #f9f6f8)" stroke-linejoin="miter" stroke-linecap="butt" stroke-miterlimit="4" stroke-width="1.3333" d="M4 11.333h0.667v-5.18c0-1.909 0.5-3.237 1.446-4.1 0.958-0.875 2.495-1.386 4.81-1.386h4.411v5.333h-3.18c-0.677 0-1.323 0.134-1.735 0.673-0.369 0.483-0.419 1.143-0.419 1.771v2.889h5.271l-0.358 4h-4.913v16h-5.333v-16h-4v-4h3.333z"></path>
</symbol>

<symbol id="facebook" viewBox="0 0 31 32">
<path stroke-linejoin="miter" stroke-linecap="butt" stroke-miterlimit="4" stroke-width="1.28" d="M11.52 11.52h0.64v-4.973c0-1.833 0.48-3.107 1.388-3.936 0.92-0.84 2.395-1.331 4.617-1.331h4.234v5.12h-3.053c-0.649 0-1.27 0.128-1.665 0.646-0.354 0.463-0.402 1.097-0.402 1.7v2.774h5.060l-0.344 3.84h-4.717v15.36h-5.12v-15.36h-3.84v-3.84h3.2z"></path>
</symbol>

<symbol id="location" viewBox="0 0 26 32">
<path fill="#646263" style="fill: var(--color1, #646263)" d="M12.8 0c-6.617 0-12 5.394-12 12.022 0 9.927 11.201 19.459 11.678 19.86 0.093 0.079 0.208 0.118 0.322 0.118s0.226-0.038 0.318-0.114c0.477-0.394 11.682-9.762 11.682-19.864 0-6.628-5.383-12.022-12-12.022zM12.802 30.838c-1.841-1.645-11.002-10.259-11.002-18.816 0-6.078 4.935-11.022 11-11.022s11 4.944 11 11.022c0 8.702-9.152 17.193-10.998 18.816z"></path>
<path fill="#646263" style="fill: var(--color1, #646263)" d="M12.8 6c-3.309 0-6 2.691-6 6s2.691 6 6 6c3.309 0 6-2.691 6-6s-2.691-6-6-6zM12.8 17c-2.757 0-5-2.243-5-5s2.243-5 5-5c2.757 0 5 2.243 5 5s-2.243 5-5 5z"></path>
</symbol>

<symbol id="white-phoneRing" viewBox="0 0 32 32">
<path fill="none" stroke="#f9f6f8" style="stroke: var(--color1, #f9f6f8)" stroke-linejoin="round" stroke-linecap="round" stroke-miterlimit="4" stroke-width="3.2" d="M20.8 8c0.849 0 1.663 0.337 2.263 0.937s0.937 1.414 0.937 2.263M20.8 1.6c2.546 0 4.988 1.011 6.788 2.812s2.812 4.242 2.812 6.788M4.8 3.2h6.4l3.2 8-4 2.4c1.714 3.474 4.526 6.286 8 8l2.4-4 8 3.2v6.4c0 0.849-0.337 1.663-0.937 2.263s-1.414 0.937-2.263 0.937c-6.241-0.379-12.128-3.030-16.549-7.451s-7.072-10.308-7.451-16.549c0-0.849 0.337-1.663 0.937-2.263s1.414-0.937 2.263-0.937z"></path>
</symbol>

<symbol id="bed" viewBox="0 0 53 32">
<path d="M0 32v-14.545c0-0.861 0.253-1.778 0.759-2.752s1.24-1.705 2.204-2.193v-6.691c0-1.641 0.57-3.021 1.71-4.14s2.545-1.679 4.216-1.679h13.333c1.021 0 1.893 0.207 2.616 0.62 0.721 0.411 1.33 0.98 1.828 1.708 0.498-0.727 1.107-1.296 1.828-1.708 0.723-0.413 1.595-0.62 2.616-0.62h13.333c1.671 0 3.077 0.559 4.216 1.679s1.71 2.499 1.71 4.14v6.691c0.964 0.489 1.699 1.22 2.205 2.193s0.758 1.891 0.758 2.752v14.545h-2.963v-5.818h-47.407v5.818h-2.963zM28.148 11.636h19.259v-5.818c0-0.824-0.285-1.515-0.853-2.071s-1.272-0.836-2.11-0.838h-13.333c-0.839 0-1.543 0.279-2.11 0.838s-0.851 1.249-0.853 2.071v5.818zM5.926 11.636h19.259v-5.818c0-0.824-0.284-1.515-0.853-2.071s-1.272-0.836-2.11-0.838h-13.333c-0.839 0-1.543 0.279-2.11 0.838s-0.851 1.249-0.853 2.071v5.818zM2.963 23.273h47.407v-5.818c0-0.824-0.285-1.515-0.853-2.071s-1.272-0.836-2.11-0.838h-41.482c-0.84 0-1.543 0.279-2.11 0.838s-0.851 1.249-0.853 2.071v5.818z"></path>
</symbol>

<symbol id="success" viewBox="0 0 43 32">
<path fill="#00793c" style="fill: var(--color1, #00793c)" d="M15.247 30.848l-14.834-14.82c-0.233-0.272-0.355-0.622-0.341-0.98s0.162-0.697 0.415-0.951c0.253-0.253 0.593-0.402 0.951-0.415s0.708 0.108 0.98 0.341l12.8 12.8 25.017-24.988c0.272-0.233 0.622-0.355 0.98-0.341s0.698 0.162 0.951 0.415 0.402 0.593 0.416 0.951c0.014 0.358-0.108 0.708-0.341 0.98l-26.994 27.008z"></path>
</symbol>

<symbol id="exclamation-mark" viewBox="0 0 3 32">
<path fill="#a20b0b" style="fill: var(--color1, #a20b0b)" d="M0.842 0.842c0-0.465 0.377-0.842 0.842-0.842s0.842 0.377 0.842 0.842v23.537c0 0.465-0.377 0.842-0.842 0.842s-0.842-0.377-0.842-0.842v-23.537z"></path>
<path fill="#a20b0b" style="fill: var(--color1, #a20b0b)" d="M0.842 29.493c0-0.465 0.377-0.842 0.842-0.842s0.842 0.377 0.842 0.842c0 0.465-0.377 0.842-0.842 0.842s-0.842-0.377-0.842-0.842z"></path>
</symbol>

<symbol id="icon-back" viewBox="0 0 32 32">
<path stroke-linejoin="round" stroke-linecap="round" stroke-miterlimit="4" stroke-width="1.3333" d="M20 24l-8-8 8-8"></path>
</symbol>

<symbol id="icon-schevron_left" viewBox="0 0 32 32">
<path stroke-linejoin="round" stroke-linecap="round" stroke-miterlimit="4" stroke-width="1.3333" d="M20 24l-8-8 8-8"></path>
</symbol>

<symbol id="icon-schevron_right" viewBox="0 0 32 32">
<path stroke-linejoin="round" stroke-linecap="round" stroke-miterlimit="4" stroke-width="1.3333" d="M12 8l8 8-8 8"></path>
</symbol>

<symbol id="snowflake" viewBox="0 0 32 32">
<path fill="none" stroke="#646263" style="stroke: var(--color1, #646263)" stroke-linejoin="round" stroke-linecap="round" stroke-miterlimit="4" stroke-width="3.5556" d="M15.407 16.889l11.852-6.667M15.407 16.889v13.333M15.407 16.889l-11.852-6.667M15.407 16.889l11.852 6.667M15.407 16.889v-13.333M15.407 16.889l-11.852 6.667"></path>
</symbol>

<symbol id="phone-new" viewBox="0 0 32 32">
<path stroke-linejoin="round" stroke-linecap="round" stroke-miterlimit="4" stroke-width="2.6667" d="M29.333 22.632v4.014c0.001 0.373-0.075 0.742-0.225 1.083s-0.369 0.648-0.644 0.9c-0.275 0.252-0.6 0.444-0.954 0.563s-0.729 0.164-1.1 0.13c-4.126-0.447-8.089-1.855-11.571-4.108-3.24-2.055-5.986-4.796-8.045-8.029-2.266-3.491-3.676-7.465-4.116-11.602-0.034-0.37 0.011-0.743 0.129-1.095s0.31-0.676 0.561-0.95c0.251-0.274 0.556-0.494 0.897-0.644s0.709-0.228 1.081-0.228h4.022c0.651-0.006 1.282 0.224 1.775 0.647s0.816 1.012 0.907 1.655c0.17 1.285 0.485 2.546 0.939 3.76 0.18 0.479 0.219 0.999 0.113 1.5s-0.355 0.96-0.716 1.324l-1.703 1.699c1.909 3.35 4.688 6.124 8.045 8.029l1.703-1.699c0.365-0.36 0.825-0.608 1.326-0.714s1.023-0.068 1.503 0.112c1.217 0.453 2.48 0.767 3.768 0.937 0.651 0.092 1.246 0.419 1.671 0.92s0.651 1.14 0.635 1.796z"></path>
</symbol>

<symbol id="instagram-new" viewBox="0 0 32 32">
<path stroke-linejoin="round" stroke-linecap="round" stroke-miterlimit="4" stroke-width="2.6667" d="M22 10v0.013M5.333 10.667c0-1.415 0.562-2.771 1.562-3.771s2.357-1.562 3.771-1.562h10.667c1.415 0 2.771 0.562 3.771 1.562s1.562 2.357 1.562 3.771v10.667c0 1.415-0.562 2.771-1.562 3.771s-2.357 1.562-3.771 1.562h-10.667c-1.415 0-2.771-0.562-3.771-1.562s-1.562-2.357-1.562-3.771v-10.667zM12 16c0 1.061 0.421 2.078 1.172 2.828s1.768 1.172 2.828 1.172c1.061 0 2.078-0.421 2.828-1.172s1.172-1.768 1.172-2.828c0-1.061-0.421-2.078-1.172-2.828s-1.768-1.172-2.828-1.172c-1.061 0-2.078 0.421-2.828 1.172s-1.172 1.768-1.172 2.828z"></path>
</symbol>

<symbol id="facebook-new" viewBox="0 0 32 32">
<path stroke-linejoin="miter" stroke-linecap="butt" stroke-miterlimit="4" stroke-width="1.3333" d="M12 11.333h0.667v-5.18c0-1.909 0.5-3.237 1.446-4.1 0.958-0.875 2.495-1.386 4.81-1.386h4.411v5.333h-3.18c-0.677 0-1.323 0.134-1.735 0.673-0.369 0.483-0.419 1.143-0.419 1.771v2.889h5.271l-0.358 4h-4.913v16h-5.333v-16h-4v-4h3.333z"></path>
</symbol>

<symbol id="icon-home" viewBox="0 0 32 32">
<path d="M14.714 5.801c0.744-0.624 1.828-0.624 2.571 0l7.834 6.575 2.666 2.468c0.27 0.25 0.287 0.672 0.036 0.942s-0.672 0.287-0.942 0.036l-1.546-1.431v9.868c0 1.105-0.895 2-2 2h-14.667c-1.105 0-2-0.895-2-2v-9.869l-1.547 1.432c-0.27 0.25-0.692 0.234-0.942-0.036s-0.234-0.692 0.037-0.942l2.691-2.489 7.81-6.553zM8 13.176v11.083c0 0.368 0.298 0.667 0.667 0.667h14.667c0.368 0 0.667-0.299 0.667-0.667v-11.083l-7.571-6.354c-0.248-0.208-0.609-0.208-0.857 0l-7.572 6.354z"></path>
</symbol>

<symbol id="icon-person" viewBox="0 0 32 32">
<path stroke-linejoin="miter" stroke-linecap="round" stroke-miterlimit="4" stroke-width="1.3333" d="M12.434 13.563v6.733M12.434 20.296c-0.366 0.582-1.357 1.396-2.394 0v-8.029c0.033-0.931 0.639-2.803 2.793-2.843s5.12-0.017 6.334 0c0.914 0.15 2.753 0.928 2.793 2.843v8.029c-0.416 0.615-1.496 1.476-2.494 0M12.434 20.296v9.276c1.316 2.314 2.909 0.964 3.541 0M19.466 20.296v-6.733M19.466 20.296v9.276c-0.565 0.964-2.055 2.314-3.491 0M15.975 29.572v-9.276M19.345 4.561c0 1.883-1.527 3.41-3.41 3.41s-3.41-1.527-3.41-3.41 1.527-3.41 3.41-3.41c1.883 0 3.41 1.527 3.41 3.41z"></path>
</symbol>

</defs>
</svg>